<svg width="342" height="201" viewBox="0 0 342 201" fill="none" xmlns="http://www.w3.org/2000/svg">
<path d="M43.7482 183.475V0.0573425H26.2492C26.2492 14.5045 14.4729 26.2598 0 26.2598V43.7282C9.84161 43.7282 20.2209 40.5408 26.2492 32.0582V183.475H0V200.943H69.9974V183.475H43.7482Z" fill="white"/>
<path d="M104.997 74.2973V26.2594C104.997 21.4438 108.921 17.5253 113.746 17.5253H116.663V0.0569458H113.746C99.2726 0.0569458 87.4968 11.8118 87.4968 26.2594V74.2973C87.4968 83.9293 79.6469 91.7652 69.9974 91.7652V100.5V109.235C79.6469 109.235 87.4968 117.071 87.4968 126.703V174.74C87.4968 189.189 99.2726 200.943 113.746 200.943H116.663V183.474H113.746C108.921 183.474 104.997 179.557 104.997 174.74V126.703C104.997 116.276 99.4549 105.144 90.1943 100.501V100.5C99.4549 95.8569 104.997 84.7245 104.997 74.2973Z" fill="white"/>
<path d="M54.2259 6.28363C53.6149 6.28363 53.1113 6.61283 52.7159 7.27126L52.1325 6.29414C52.2435 5.8711 52.5004 5.51763 52.9031 5.23331C53.3058 4.9494 53.7815 4.80704 54.33 4.80704C55.0382 4.80704 55.5974 5.02017 56.007 5.44645C56.4166 5.87272 56.6216 6.40496 56.6216 7.04234C56.6216 7.54142 56.5122 7.98872 56.2934 8.38385C56.0746 8.77899 55.7015 9.27765 55.1736 9.88067L54.2571 10.9415H56.7986V12.4177H52.1637V11.2533L54.2571 8.93469C54.6112 8.53956 54.8612 8.22451 55.0071 7.98872C55.1529 7.75294 55.2258 7.49652 55.2258 7.21949C55.2258 6.96267 55.1322 6.74266 54.9447 6.55905C54.7571 6.37543 54.5176 6.28363 54.2259 6.28363Z" fill="white"/>
<path d="M60.5273 4.80704C61.3327 4.80704 61.968 5.1504 62.4331 5.83632C62.8982 6.52265 63.1308 7.47913 63.1308 8.70619C63.1308 9.91221 62.9051 10.8566 62.4538 11.5392C62.0024 12.2219 61.3672 12.5633 60.5479 12.5633C59.7077 12.5633 59.0602 12.2167 58.6056 11.5235C58.1506 10.8303 57.9233 9.88067 57.9233 8.67464C57.9233 7.46862 58.1523 6.52265 58.6109 5.83632C59.0691 5.1504 59.7076 4.80704 60.5273 4.80704ZM60.5273 6.28363C60.1732 6.28363 59.8831 6.48625 59.6574 6.89189C59.4317 7.29714 59.3191 7.90217 59.3191 8.70619C59.3191 9.49605 59.4334 10.0906 59.6627 10.4889C59.892 10.8877 60.1833 11.0871 60.5374 11.0871C60.8846 11.0871 61.1711 10.8788 61.3967 10.463C61.6224 10.0473 61.7354 9.45803 61.7354 8.69567C61.7354 7.94706 61.624 7.3578 61.402 6.9283C61.18 6.49838 60.8883 6.28363 60.5273 6.28363Z" fill="white"/>
<path d="M64.2766 7.8225V6.35643L66.0576 4.95264H67.1305V12.4177H65.7659V6.80333L64.2766 7.8225Z" fill="white"/>
<path d="M68.9946 12.4177L71.5045 6.42923H68.6405V4.95264H73.1296V6.01306L70.4317 12.4177H68.9946Z" fill="white"/>
<path d="M134.16 114H136.416V106.2L144 114H147.168L138.648 105.144L146.352 96.768H143.376L136.416 104.304V96.768H134.16V114ZM153.715 111.96C151.411 111.96 149.827 110.928 149.611 108.816H158.779C158.827 108.528 158.851 108.288 158.851 108C158.851 104.616 156.715 101.736 153.259 101.736C149.635 101.736 147.379 104.664 147.379 108.024C147.379 111.864 150.019 114.288 153.595 114.288C155.851 114.288 157.483 113.136 157.987 112.08L157.411 110.376C156.739 111.144 155.251 111.96 153.715 111.96ZM149.755 106.608C149.947 105.144 151.507 104.064 153.259 104.064C155.011 104.064 156.403 105.168 156.523 106.608H149.755ZM169.128 110.832L165.408 102.024H163.2L161.328 114H163.56L164.88 106.032L168.144 114H170.16L173.496 106.08L174.816 114H176.976L175.104 102.024H172.848L169.128 110.832ZM185.777 111.96C183.473 111.96 181.889 110.928 181.673 108.816H190.841C190.889 108.528 190.913 108.288 190.913 108C190.913 104.616 188.777 101.736 185.321 101.736C181.697 101.736 179.441 104.664 179.441 108.024C179.441 111.864 182.081 114.288 185.657 114.288C187.913 114.288 189.545 113.136 190.049 112.08L189.473 110.376C188.801 111.144 187.313 111.96 185.777 111.96ZM181.817 106.608C182.009 105.144 183.569 104.064 185.321 104.064C187.073 104.064 188.465 105.168 188.585 106.608H181.817ZM205.99 108.024C205.99 104.304 203.134 101.736 199.798 101.736C197.974 101.736 196.534 102.408 196.15 103.296V102.024H194.038V119.112H196.222V112.704C196.606 113.592 198.022 114.288 199.846 114.288C203.11 114.288 205.99 111.72 205.99 108.024ZM203.806 107.976C203.806 110.4 202.198 111.96 199.774 111.96C198.118 111.96 196.63 111.12 196.222 109.968V106.056C196.63 104.904 198.118 104.064 199.774 104.064C202.198 104.064 203.806 105.6 203.806 107.976ZM220.389 108.024C220.389 104.424 217.605 101.736 214.341 101.736C211.077 101.736 208.293 104.424 208.293 108.024C208.293 111.624 211.077 114.288 214.341 114.288C217.605 114.288 220.389 111.624 220.389 108.024ZM210.477 108.024C210.477 105.696 212.133 104.064 214.341 104.064C216.549 104.064 218.205 105.696 218.205 108.048C218.205 110.4 216.549 111.96 214.341 111.96C212.133 111.96 210.477 110.4 210.477 108.024ZM223.499 102.024V114H228.515C230.819 114 232.643 112.584 232.643 110.544C232.643 109.152 232.115 108.24 231.011 107.712C231.803 107.064 232.067 106.248 232.067 105.264C232.067 103.272 230.411 102.024 228.059 102.024H223.499ZM225.683 111.72V109.104H228.947C229.763 109.104 230.411 109.584 230.411 110.376C230.411 111.168 229.811 111.72 228.947 111.72H225.683ZM225.683 106.848V104.304H228.467C229.211 104.304 229.835 104.736 229.835 105.6C229.835 106.32 229.259 106.848 228.467 106.848H225.683ZM245.044 110.496C244.372 111.264 243.076 111.96 241.612 111.96C238.948 111.96 237.172 110.376 237.172 108C237.172 105.624 238.948 104.064 241.612 104.064C242.98 104.064 244.3 104.712 244.972 105.48L245.548 103.752C245.068 102.72 243.364 101.736 241.204 101.736C237.94 101.736 234.988 104.256 234.988 108C234.988 111.744 237.94 114.288 241.204 114.288C243.46 114.288 245.14 113.256 245.644 112.2L245.044 110.496ZM248.765 114H250.949V108.72L256.565 114H259.805L253.181 107.808L259.229 102.024H256.253L250.949 107.064V102.024H248.765V114ZM261.843 102.024V114H264.027L270.411 105.624V114H272.595V102.024H270.411L264.027 110.4V102.024H261.843ZM276.538 102.024V114H278.722L285.106 105.624V114H287.29V102.024H285.106L278.722 110.4V102.024H276.538ZM283.858 96.912C283.786 97.752 283.09 98.52 281.914 98.52C280.738 98.52 280.042 97.752 279.97 96.912L278.074 97.224C278.074 99.24 279.778 100.704 281.914 100.704C284.05 100.704 285.754 99.24 285.754 97.224L283.858 96.912ZM133.968 129.024V141H136.152V131.352H141.456V129.024H133.968ZM155.279 135.024C155.279 131.424 152.495 128.736 149.231 128.736C145.967 128.736 143.183 131.424 143.183 135.024C143.183 138.624 145.967 141.288 149.231 141.288C152.495 141.288 155.279 138.624 155.279 135.024ZM145.367 135.024C145.367 132.696 147.023 131.064 149.231 131.064C151.439 131.064 153.095 132.696 153.095 135.048C153.095 137.4 151.439 138.96 149.231 138.96C147.023 138.96 145.367 137.4 145.367 135.024ZM167.63 137.496C166.958 138.264 165.662 138.96 164.198 138.96C161.534 138.96 159.758 137.376 159.758 135C159.758 132.624 161.534 131.064 164.198 131.064C165.566 131.064 166.886 131.712 167.558 132.48L168.134 130.752C167.654 129.72 165.95 128.736 163.79 128.736C160.526 128.736 157.574 131.256 157.574 135C157.574 138.744 160.526 141.288 163.79 141.288C166.046 141.288 167.726 140.256 168.23 139.2L167.63 137.496ZM174.759 140.544L172.455 146.112H174.879L182.007 129.024H179.583L175.935 137.832L172.263 129.024H169.815L174.759 140.544ZM182.431 138.672V144.192H184.519V141H193.903V144.192H195.991V138.672H193.999V129.024H186.055V129.792C186.055 134.112 184.783 136.944 183.607 138.672H182.431ZM186.031 138.672C186.751 137.52 187.879 134.832 188.071 131.352H191.815V138.672H186.031ZM206.09 137.664C205.706 138.432 204.362 138.96 203.09 138.96C201.218 138.96 200.21 138.312 200.21 137.352C200.21 136.32 201.29 135.744 203.09 135.744C204.386 135.744 205.706 136.08 206.09 136.752V137.664ZM199.298 132.72C200.018 131.736 201.362 131.064 202.874 131.064C204.602 131.064 206.09 131.928 206.09 133.92V134.496C205.346 133.8 203.906 133.512 202.802 133.512C200.138 133.512 198.026 134.904 198.026 137.4C198.026 139.848 199.898 141.288 202.73 141.288C204.05 141.288 205.562 140.76 206.162 139.944V141H208.274V133.44C208.274 130.488 206.306 128.736 203.138 128.736C201.218 128.736 199.562 129.576 198.674 130.824L199.298 132.72ZM224.037 135.024C224.037 131.304 221.181 128.736 217.845 128.736C216.021 128.736 214.581 129.408 214.197 130.296V129.024H212.085V146.112H214.269V139.704C214.653 140.592 216.069 141.288 217.893 141.288C221.157 141.288 224.037 138.72 224.037 135.024ZM221.853 134.976C221.853 137.4 220.245 138.96 217.821 138.96C216.165 138.96 214.677 138.12 214.269 136.968V133.056C214.677 131.904 216.165 131.064 217.821 131.064C220.245 131.064 221.853 132.6 221.853 134.976ZM236.396 137.496C235.724 138.264 234.428 138.96 232.964 138.96C230.3 138.96 228.524 137.376 228.524 135C228.524 132.624 230.3 131.064 232.964 131.064C234.332 131.064 235.652 131.712 236.324 132.48L236.9 130.752C236.42 129.72 234.716 128.736 232.556 128.736C229.292 128.736 226.34 131.256 226.34 135C226.34 138.744 229.292 141.288 232.556 141.288C234.812 141.288 236.492 140.256 236.996 139.2L236.396 137.496ZM249.14 129.024H238.988V131.352H242.972V141H245.156V131.352H249.14V129.024ZM251.952 129.024V141H256.968C259.272 141 261.096 139.584 261.096 137.544C261.096 136.152 260.568 135.24 259.464 134.712C260.256 134.064 260.52 133.248 260.52 132.264C260.52 130.272 258.864 129.024 256.512 129.024H251.952ZM254.136 138.72V136.104H257.4C258.216 136.104 258.864 136.584 258.864 137.376C258.864 138.168 258.264 138.72 257.4 138.72H254.136ZM254.136 133.848V131.304H256.92C257.664 131.304 258.288 131.736 258.288 132.6C258.288 133.32 257.712 133.848 256.92 133.848H254.136ZM269.777 138.96C267.473 138.96 265.889 137.928 265.673 135.816H274.841C274.889 135.528 274.913 135.288 274.913 135C274.913 131.616 272.777 128.736 269.321 128.736C265.697 128.736 263.441 131.664 263.441 135.024C263.441 138.864 266.081 141.288 269.657 141.288C271.913 141.288 273.545 140.136 274.049 139.08L273.473 137.376C272.801 138.144 271.313 138.96 269.777 138.96ZM265.817 133.608C266.009 132.144 267.569 131.064 269.321 131.064C271.073 131.064 272.465 132.168 272.585 133.608H265.817ZM278.038 129.024V141H280.222V135.984H286.51V141H288.694V129.024H286.51V133.656H280.222V129.024H278.038ZM292.64 129.024V141H294.824V135.984H301.112V141H303.296V129.024H301.112V133.656H294.824V129.024H292.64ZM317.969 141H320.153V129.024H317.969V141ZM311.609 141C314.129 141 316.169 139.296 316.169 136.8C316.169 134.376 314.177 132.6 311.633 132.6H309.425V129.024H307.241V141H311.609ZM309.425 138.672V134.928H311.921C313.049 134.928 313.937 135.624 313.937 136.752C313.937 137.856 313.121 138.672 311.921 138.672H309.425ZM324.093 129.024V141H326.277L332.661 132.624V141H334.845V129.024H332.661L326.277 137.4V129.024H324.093ZM331.413 123.912C331.341 124.752 330.645 125.52 329.469 125.52C328.293 125.52 327.597 124.752 327.525 123.912L325.629 124.224C325.629 126.24 327.333 127.704 329.469 127.704C331.605 127.704 333.309 126.24 333.309 124.224L331.413 123.912ZM137.376 167.544L135.072 173.112H137.496L144.624 156.024H142.2L138.552 164.832L134.88 156.024H132.432L137.376 167.544ZM147.093 156.024V168H149.277V162.984H155.565V168H157.749V156.024H155.565V160.656H149.277V156.024H147.093ZM161.695 156.024V168H163.879L170.263 159.624V168H172.447V156.024H170.263L163.879 164.4V156.024H161.695ZM176.39 156.024V168H181.406C183.71 168 185.534 166.584 185.534 164.544C185.534 163.152 185.006 162.24 183.902 161.712C184.694 161.064 184.958 160.248 184.958 159.264C184.958 157.272 183.302 156.024 180.95 156.024H176.39ZM178.574 165.72V163.104H181.838C182.654 163.104 183.302 163.584 183.302 164.376C183.302 165.168 182.702 165.72 181.838 165.72H178.574ZM178.574 160.848V158.304H181.358C182.102 158.304 182.726 158.736 182.726 159.6C182.726 160.32 182.15 160.848 181.358 160.848H178.574ZM194.215 165.96C191.911 165.96 190.327 164.928 190.111 162.816H199.279C199.327 162.528 199.351 162.288 199.351 162C199.351 158.616 197.215 155.736 193.759 155.736C190.135 155.736 187.879 158.664 187.879 162.024C187.879 165.864 190.519 168.288 194.095 168.288C196.351 168.288 197.983 167.136 198.487 166.08L197.911 164.376C197.239 165.144 195.751 165.96 194.215 165.96ZM190.255 160.608C190.447 159.144 192.007 158.064 193.759 158.064C195.511 158.064 196.903 159.168 197.023 160.608H190.255ZM214.428 162.024C214.428 158.304 211.572 155.736 208.236 155.736C206.412 155.736 204.972 156.408 204.588 157.296V156.024H202.476V173.112H204.66V166.704C205.044 167.592 206.46 168.288 208.284 168.288C211.548 168.288 214.428 165.72 214.428 162.024ZM212.244 161.976C212.244 164.4 210.636 165.96 208.212 165.96C206.556 165.96 205.068 165.12 204.66 163.968V160.056C205.068 158.904 206.556 158.064 208.212 158.064C210.636 158.064 212.244 159.6 212.244 161.976ZM226.786 164.496C226.114 165.264 224.818 165.96 223.354 165.96C220.69 165.96 218.914 164.376 218.914 162C218.914 159.624 220.69 158.064 223.354 158.064C224.722 158.064 226.042 158.712 226.714 159.48L227.29 157.752C226.81 156.72 225.106 155.736 222.946 155.736C219.682 155.736 216.73 158.256 216.73 162C216.73 165.744 219.682 168.288 222.946 168.288C225.202 168.288 226.882 167.256 227.386 166.2L226.786 164.496ZM230.507 156.024V168H232.691L239.075 159.624V168H241.259V156.024H239.075L232.691 164.4V156.024H230.507ZM254.226 156.024H244.074V158.352H248.058V168H250.242V158.352H254.226V156.024ZM262.277 165.96C259.973 165.96 258.389 164.928 258.173 162.816H267.341C267.389 162.528 267.413 162.288 267.413 162C267.413 158.616 265.277 155.736 261.821 155.736C258.197 155.736 255.941 158.664 255.941 162.024C255.941 165.864 258.581 168.288 262.157 168.288C264.413 168.288 266.045 167.136 266.549 166.08L265.973 164.376C265.301 165.144 263.813 165.96 262.277 165.96ZM258.317 160.608C258.509 159.144 260.069 158.064 261.821 158.064C263.573 158.064 264.965 159.168 265.085 160.608H258.317ZM279.445 156.024H269.293V158.352H273.277V168H275.461V158.352H279.445V156.024Z" fill="white"/>
<path d="M148.488 28.768H145.344L137.184 40.456V28.768H134.04V46H137.208L145.344 34.384V46H148.488V28.768ZM152.363 33.64V46H155.411V41.272H160.835V46H163.883V33.64H160.835V38.032H155.411V33.64H152.363ZM176.983 41.56C176.311 42.328 175.087 43.096 173.527 43.096C171.295 43.096 169.831 41.752 169.831 39.808C169.831 37.864 171.295 36.544 173.527 36.544C175.063 36.544 176.311 37.264 176.935 38.032L177.799 35.488C177.103 34.312 175.375 33.304 173.191 33.304C169.759 33.304 166.711 35.944 166.711 39.808C166.711 43.672 169.759 46.336 173.191 46.336C175.399 46.336 177.175 45.352 177.895 44.128L176.983 41.56ZM190.298 33.64H179.618V36.88H183.434V46H186.482V36.88H190.298V33.64ZM192.84 33.64V46H195.888L201.48 38.584V46H204.48V33.64H201.432L195.84 41.056V33.64H192.84ZM217.697 33.64H207.017V36.88H210.833V46H213.881V36.88H217.697V33.64ZM223.766 45.232L221.246 51.112H224.582L231.974 33.64H228.59L225.35 41.32L222.11 33.64H218.822L223.766 45.232ZM243.83 33.64H233.15V36.88H236.966V46H240.014V36.88H243.83V33.64ZM146.88 76.288V69.76H145.152V60.64H142.104V69.76H136.872V60.64H133.824V73H143.928V76.288H146.88ZM149.551 60.64V73H152.599L158.191 65.584V73H161.191V60.64H158.143L152.551 68.056V60.64H149.551ZM170.544 78.112H173.592V73.24C177.36 73.24 180.12 70.888 180.12 66.832C180.12 62.776 177.456 60.4 173.592 60.4V55.528H170.544V60.4C166.68 60.4 164.016 62.776 164.016 66.832C164.016 70.888 166.776 73.24 170.544 73.24V78.112ZM177 66.832C177 68.872 175.8 69.904 173.592 69.904V63.736C175.8 63.736 177 64.864 177 66.832ZM167.136 66.832C167.136 64.864 168.336 63.736 170.544 63.736V69.904C168.336 69.904 167.136 68.872 167.136 66.832ZM195.861 66.808C195.861 62.944 192.885 60.304 189.573 60.304C187.749 60.304 186.309 61.024 185.901 61.936V60.64H182.949V78.112H185.997V71.704C186.405 72.64 187.797 73.336 189.621 73.336C192.909 73.336 195.861 70.672 195.861 66.808ZM192.789 66.808C192.789 68.752 191.325 70.096 189.213 70.096C187.701 70.096 186.381 69.4 185.997 68.464V65.176C186.381 64.264 187.701 63.544 189.213 63.544C191.325 63.544 192.789 64.864 192.789 66.808ZM198.699 60.64V73H203.571C206.259 73 208.323 71.344 208.323 68.536C208.323 65.752 206.331 64.048 203.595 64.048H201.747V60.64H198.699ZM201.747 69.928V67.12H203.763C204.651 67.12 205.323 67.624 205.323 68.488C205.323 69.304 204.723 69.928 203.763 69.928H201.747ZM210.195 73H213.243V60.64H210.195V73Z" fill="white"/>
</svg>
